<?xml version="1.0" encoding="utf-8"?>
<!-- Generator: Adobe Illustrator 23.0.4, SVG Export Plug-In . SVG Version: 6.00 Build 0)  -->
<svg version="1.1" id="Logo" 
	xmlns="http://www.w3.org/2000/svg" 
	xmlns:xlink="http://www.w3.org/1999/xlink" x="0px" y="0px" viewBox="0 0 479 135" style="enable-background:new 0 0 479 135;" xml:space="preserve">
	<g id="text">
		<g>
			<path class="text" d="M175.4,108.3h-22.3V24.5h23.2c12.6,0,20.8,6.7,20.8,21.5c0,9.9-3.3,16.6-10.9,19.3v0.2
			c8.3,2.3,12.1,9,12.1,19.8C198.5,99.7,189.9,108.3,175.4,108.3z M174.8,37h-6.3v22.5h6.3c4.4,0,8.3-2.6,8.3-10.8
			C183,39.1,179.2,37,174.8,37z M175.1,71.6h-6.6v24.2h6.6c4.9,0,8.5-3,8.5-12.7C183.6,74,179.2,71.6,175.1,71.6z"/>
			<path class="text" d="M245.5,108.3h-12.8c-0.8-1.3-1.2-4-1.2-5.9h-0.3c-2.5,3.4-7.1,7.2-13.6,7.2c-9.5,0-14.5-5.2-14.5-14.1v-2.2
			c0-7.5,5.4-13.3,13.2-17c2.9-1.3,11.9-5.3,13.6-6.1v-4.5c0-3.4-1.5-6.6-6.4-6.6c-4.1,0-6.4,2.9-6.4,6.7c0,1.8,0.3,3.1,0.7,4.3
			L206,71.1c-0.3-1.8-0.7-4.4-0.7-6.8c0-10,7.3-16.1,18.9-16.1c14.6,0,20.3,7,20.3,19.8v31.8c0,3.1,0.3,6.5,1,8.2L245.5,108.3
			L245.5,108.3z M229.9,79.8c-1.6,0.9-6.3,3.3-6.3,3.3c-3.3,1.8-6.5,4.2-6.5,7.7v1.9c0,4,2.6,5.6,6.1,5.6c3.1,0,6.7-2.5,6.7-6.5
			V79.8z"/>
			<path class="text" d="M267.3,108.3h-14.4V25.5h14.4V108.3z"/>
			<path class="text" d="M289.9,108.3h-14.4V25.5h14.4V108.3z"/>
			<path class="text" d="M340,91.2c0,13-7.3,18-15,18c-7.6,0-10.1-1.8-12.2-4h-0.2v24h-14.5V58.9c0-3.5-0.2-7.5-0.8-8.9v-0.2h13.9
			c0.3,1.5,0.8,4.5,0.9,6.9h0.2c2.2-3.8,6.9-8.6,13.5-8.6c7.4,0,14.2,3.6,14.2,17.2L340,91.2L340,91.2z M325.4,67.4
			c0-4.5-2.2-7-6.1-7s-6.7,3.5-6.7,7.8v23.2c0,4.5,2.2,6.9,6.6,6.9c4.3,0,6.2-2.8,6.2-6.6V67.4z"/>
			<path class="text" d="M388,108.3h-12.8c-0.8-1.3-1.2-4-1.2-5.9h-0.3c-2.5,3.4-7,7.2-13.5,7.2c-9.5,0-14.5-5.2-14.5-14.1v-2.2
			c0-7.5,5.4-13.3,13.2-17c2.9-1.3,11.9-5.3,13.5-6.1v-4.5c0-3.4-1.5-6.6-6.4-6.6c-4.1,0-6.4,2.9-6.4,6.7c0,1.8,0.3,3.1,0.7,4.3
			l-11.8,1.1c-0.3-1.8-0.7-4.4-0.7-6.8c0-10,7.3-16.1,19-16.1c14.6,0,20.3,7,20.3,19.8v31.8c0,3.1,0.3,6.5,1,8.2L388,108.3
			L388,108.3z M372.3,79.8c-1.6,0.9-6.3,3.3-6.3,3.3c-3.3,1.8-6.5,4.2-6.5,7.7v1.9c0,4,2.6,5.6,6.1,5.6c3.1,0,6.7-2.5,6.7-6.5V79.8z
			"/>
			<path class="text" d="M425.7,63c-1.3-0.2-2.8-0.5-4.4-0.5c-7.7,0-11.4,5.6-11.4,11.9v33.9h-14.5V58.6c0-3.3-0.4-7-0.8-8.6v-0.2
			h13.1c0.7,2.4,1.1,6.1,1.2,9.4h0.3c3.2-8,8.7-11,16.4-11L425.7,63L425.7,63z"/>
			<path class="text" d="M473.6,108.3h-14.8L452,81.7l-6.1,9.2v17.4h-14.4V25.5h14.4v50.8h0.2l12.5-26.5h14.8L462,70.4L473.6,108.3z" />
		</g>
	</g>
	<g id="symbol">
		<g>
			<g>
				<path class="symbol" d="M107.3,21.9L18,37.7L33.7,127l89.3-15.8L107.3,21.9z M68.3,107.7l-1.7-9.2l12.7-2.3l1.7,9.2L68.3,107.7z
				 M81.7,75.4c-4.2,6-5.3,9.2-4.6,13.2c0.2,1.1,0.5,2.2,1.1,3.3l-11.8,2.1c-0.7-1-1.1-2.1-1.4-3.6c-0.9-4.9,0.1-8.8,4.3-15
				c4.8-7.2,5.7-11.5,4.7-17.3c-0.8-4.4-3.5-5.6-7.7-4.8c-4.2,0.8-6.3,2.9-5.5,7.2l1.2,6.6l-12.5,2.3l-1.1-6
				c-1.8-9.8,3.8-16.6,16.7-18.9s20.5,2,22.2,11.8C88.6,62.8,87.1,68,81.7,75.4z"/>
			</g>
		</g>
	</g>
	<g id="alt-symbol">
		<path class="alt-symbol" d="M84,19L19.7,8l-4.1,23L84,19z"/>
		<path class="alt-symbol" d="M12.7,48L4,97.3l17.9,3.2L12.7,48z"/>
	</g>
</svg>
